<svg width="36" height="36" viewBox="0 0 36 36" fill="none" xmlns="http://www.w3.org/2000/svg">
<g filter="url(#filter0_b_251_8982)">
<path d="M18 36C27.9411 36 36 27.9411 36 18C36 8.05888 27.9411 0 18 0C8.05888 0 0 8.05888 0 18C0 27.9411 8.05888 36 18 36Z" fill="url(#paint0_linear_251_8982)" fill-opacity="0.6"/>
<path d="M35.75 18C35.75 27.8031 27.8031 35.75 18 35.75C8.19695 35.75 0.25 27.8031 0.25 18C0.25 8.19695 8.19695 0.25 18 0.25C27.8031 0.25 35.75 8.19695 35.75 18Z" stroke="url(#paint1_linear_251_8982)" stroke-width="0.5"/>
</g>
<g clip-path="url(#clip0_251_8982)">
<path fill-rule="evenodd" clip-rule="evenodd" d="M18 8C12.475 8 8 12.475 8 18C8 22.425 10.8625 26.1625 14.8375 27.4875C15.3375 27.575 15.525 27.275 15.525 27.0125C15.525 26.775 15.5125 25.9875 15.5125 25.15C13 25.6125 12.35 24.5375 12.15 23.975C12.0375 23.6875 11.55 22.8 11.125 22.5625C10.775 22.375 10.275 21.9125 11.1125 21.9C11.9 21.8875 12.4625 22.625 12.65 22.925C13.55 24.4375 14.9875 24.0125 15.5625 23.75C15.65 23.1 15.9125 22.6625 16.2 22.4125C13.975 22.1625 11.65 21.3 11.65 17.475C11.65 16.3875 12.0375 15.4875 12.675 14.7875C12.575 14.5375 12.225 13.5125 12.775 12.1375C12.775 12.1375 13.6125 11.875 15.525 13.1625C16.325 12.9375 17.175 12.825 18.025 12.825C18.875 12.825 19.725 12.9375 20.525 13.1625C22.4375 11.8625 23.275 12.1375 23.275 12.1375C23.825 13.5125 23.475 14.5375 23.375 14.7875C24.0125 15.4875 24.4 16.375 24.4 17.475C24.4 21.3125 22.0625 22.1625 19.8375 22.4125C20.2 22.725 20.5125 23.325 20.5125 24.2625C20.5125 25.6 20.5 26.675 20.5 27.0125C20.5 27.275 20.6875 27.5875 21.1875 27.4875C25.1375 26.1625 28 22.4125 28 18C28 12.475 23.525 8 18 8Z" fill="white"/>
</g>
<defs>
<filter id="filter0_b_251_8982" x="-13.3857" y="-13.3857" width="62.7714" height="62.7714" filterUnits="userSpaceOnUse" color-interpolation-filters="sRGB">
<feFlood flood-opacity="0" result="BackgroundImageFix"/>
<feGaussianBlur in="BackgroundImageFix" stdDeviation="6.69284"/>
<feComposite in2="SourceAlpha" operator="in" result="effect1_backgroundBlur_251_8982"/>
<feBlend mode="normal" in="SourceGraphic" in2="effect1_backgroundBlur_251_8982" result="shape"/>
</filter>
<linearGradient id="paint0_linear_251_8982" x1="2.03241" y1="33.9676" x2="33.9676" y2="2.03241" gradientUnits="userSpaceOnUse">
<stop stop-color="white" stop-opacity="0.2"/>
<stop offset="1" stop-color="white" stop-opacity="0.49"/>
</linearGradient>
<linearGradient id="paint1_linear_251_8982" x1="2.5412" y1="2.83133" x2="32.6338" y2="35.0073" gradientUnits="userSpaceOnUse">
<stop stop-color="white"/>
<stop offset="1" stop-color="white" stop-opacity="0"/>
</linearGradient>
<clipPath id="clip0_251_8982">
<rect width="20" height="20" fill="white" transform="translate(8 8)"/>
</clipPath>
</defs>
</svg>
