<svg xmlns="http://www.w3.org/2000/svg" width="100" height="100" viewBox="0 0 100 100" fill="none">
  <path d="M48.5 65C58.165 65 66 57.165 66 47.5C66 37.835 58.165 30 48.5 30C38.835 30 31 37.835 31 47.5C31 57.165 38.835 65 48.5 65Z" fill="url(#paint0_linear_253_2541)"/>
  <g filter="url(#filter0_b_253_2541)">
    <path d="M86.3367 42.515L13.5799 42.515C11.0513 42.515 9 44.5663 9 47.0898L9 85.4251C9 87.9537 11.0513 90 13.5799 90L86.3367 90C88.8653 90 90.9166 87.9537 90.9166 85.4251V47.0898C90.9166 44.5663 88.8653 42.515 86.3367 42.515ZM68.1521 86.7097C67.9642 86.8976 67.7002 87.0144 67.4158 87.0144H32.5008C31.927 87.0144 31.4599 86.5523 31.4599 85.9786C31.4599 85.6942 31.5767 85.4302 31.7645 85.2423C31.9524 85.0544 32.2114 84.9377 32.5008 84.9377H67.4158C67.9896 84.9377 68.4567 85.4048 68.4567 85.9786C68.4567 86.2629 68.3399 86.5269 68.1521 86.7097Z" fill="url(#paint1_linear_253_2541)"/>
    <path d="M13.5799 43.015L86.3367 43.015C88.5895 43.015 90.4166 44.8428 90.4166 47.0898V85.4251C90.4166 87.6769 88.5899 89.5 86.3367 89.5L13.5799 89.5C11.3267 89.5 9.5 87.6769 9.5 85.4251L9.5 47.0898C9.5 44.8428 11.3271 43.015 13.5799 43.015ZM67.4158 87.5144C67.8359 87.5144 68.2248 87.3428 68.5031 87.0658C68.7857 86.7895 68.9567 86.3975 68.9567 85.9786C68.9567 85.1287 68.2657 84.4377 67.4158 84.4377H32.5008C32.0731 84.4377 31.6886 84.6112 31.411 84.8888C31.1324 85.1673 30.9599 85.5573 30.9599 85.9786C30.9599 86.8316 31.6541 87.5144 32.5008 87.5144H67.4158Z" stroke="url(#paint2_linear_253_2541)"/>
  </g>
  <path d="M68.4568 85.9785C68.4568 86.2628 68.34 86.5269 68.1521 86.7097C67.9642 86.8975 67.7002 87.0143 67.4159 87.0143H32.5008C31.9271 87.0143 31.46 86.5523 31.46 85.9785C31.46 85.6942 31.5767 85.4301 31.7646 85.2423C31.9525 85.0544 32.2114 84.9376 32.5008 84.9376H67.4159C67.9897 84.9376 68.4568 85.4047 68.4568 85.9785Z" fill="white"/>
  <circle cx="48.5022" cy="42.5023" r="25.7258" transform="rotate(-174.153 48.5022 42.5023)" stroke="url(#paint3_angular_253_2541)" stroke-width="6"/>
  <path d="M75.9081 28.6747L70.3888 19.0311C69.6866 17.8043 67.854 18.0286 67.4684 19.3885L66.1807 23.9295L62.5731 26.7712C61.4638 27.645 61.9524 29.4229 63.3524 29.6071L74.3149 31.0497C75.6239 31.2219 76.564 29.8206 75.9081 28.6747Z" fill="#10E0F9"/>
  <defs>
    <filter id="filter0_b_253_2541" x="-5.70277" y="27.8122" width="111.323" height="76.8905" filterUnits="userSpaceOnUse" color-interpolation-filters="sRGB">
      <feFlood flood-opacity="0" result="BackgroundImageFix"/>
      <feGaussianBlur in="BackgroundImageFix" stdDeviation="7.35138"/>
      <feComposite in2="SourceAlpha" operator="in" result="effect1_backgroundBlur_253_2541"/>
      <feBlend mode="normal" in="SourceGraphic" in2="effect1_backgroundBlur_253_2541" result="shape"/>
    </filter>
    <linearGradient id="paint0_linear_253_2541" x1="41.2503" y1="-51.3986" x2="99.7779" y2="-41.3371" gradientUnits="userSpaceOnUse">
      <stop stop-color="#2F44AF"/>
      <stop offset="0.984747" stop-color="#581A38"/>
    </linearGradient>
    <linearGradient id="paint1_linear_253_2541" x1="13.6247" y1="87.3192" x2="50.1777" y2="24.2613" gradientUnits="userSpaceOnUse">
      <stop stop-color="white" stop-opacity="0.2"/>
      <stop offset="1" stop-color="white" stop-opacity="0.49"/>
    </linearGradient>
    <linearGradient id="paint2_linear_253_2541" x1="14.7824" y1="46.2496" x2="48.119" y2="107.74" gradientUnits="userSpaceOnUse">
      <stop stop-color="white"/>
      <stop offset="1" stop-color="white" stop-opacity="0"/>
    </linearGradient>
    <radialGradient id="paint3_angular_253_2541" cx="0" cy="0" r="1" gradientUnits="userSpaceOnUse" gradientTransform="translate(48.5022 42.5023) rotate(130.156) scale(26.9264)">
      <stop stop-color="#10E0F9" stop-opacity="0"/>
      <stop offset="0.703125" stop-color="#00FF79" stop-opacity="0"/>
      <stop offset="1" stop-color="#10E0F9"/>
    </radialGradient>
  </defs>
</svg>