<svg width="30" height="31" viewBox="0 0 30 31" fill="none" xmlns="http://www.w3.org/2000/svg">
<path d="M9.13574 17.7483V11.15C9.13574 7.74693 11.8954 4.9873 15.2984 4.9873C18.7015 4.9873 21.4611 7.74693 21.4611 11.15V17.7465" stroke="url(#paint0_linear_251_9022)" stroke-width="3" stroke-miterlimit="10"/>
<g filter="url(#filter0_b_251_9022)">
<path d="M23.3896 13.7385H7.20734C5.98826 13.7385 5 14.7268 5 15.9459V25.0195C5 26.2385 5.98826 27.2268 7.20734 27.2268H23.3896C24.6087 27.2268 25.597 26.2385 25.597 25.0195V15.9459C25.597 14.7268 24.6087 13.7385 23.3896 13.7385Z" fill="url(#paint1_linear_251_9022)"/>
<path d="M7.20734 14.164H23.3896C24.3737 14.164 25.1715 14.9618 25.1715 15.9459V25.0195C25.1715 26.0036 24.3737 26.8013 23.3896 26.8013H7.20734C6.22324 26.8013 5.42547 26.0036 5.42547 25.0195V15.9459C5.42547 14.9618 6.22324 14.164 7.20734 14.164Z" stroke="url(#paint2_linear_251_9022)" stroke-width="0.850939"/>
</g>
<defs>
<filter id="filter0_b_251_9022" x="-2.65845" y="6.08007" width="35.9136" height="28.8052" filterUnits="userSpaceOnUse" color-interpolation-filters="sRGB">
<feFlood flood-opacity="0" result="BackgroundImageFix"/>
<feGaussianBlur in="BackgroundImageFix" stdDeviation="3.82923"/>
<feComposite in2="SourceAlpha" operator="in" result="effect1_backgroundBlur_251_9022"/>
<feBlend mode="normal" in="SourceGraphic" in2="effect1_backgroundBlur_251_9022" result="shape"/>
</filter>
<linearGradient id="paint0_linear_251_9022" x1="10.5657" y1="6.93225" x2="16.7376" y2="18.9538" gradientUnits="userSpaceOnUse">
<stop stop-color="#21D898"/>
<stop offset="1" stop-color="#198E9B"/>
</linearGradient>
<linearGradient id="paint1_linear_251_9022" x1="6.16282" y1="26.4653" x2="17.1306" y2="9.71718" gradientUnits="userSpaceOnUse">
<stop stop-color="white" stop-opacity="0.2"/>
<stop offset="1" stop-color="white" stop-opacity="0.49"/>
</linearGradient>
<linearGradient id="paint2_linear_251_9022" x1="6.45391" y1="14.7994" x2="16.5199" y2="31.2346" gradientUnits="userSpaceOnUse">
<stop stop-color="white"/>
<stop offset="1" stop-color="white" stop-opacity="0"/>
</linearGradient>
</defs>
</svg>
