<svg xmlns="http://www.w3.org/2000/svg" width="101" height="100" viewBox="0 0 101 100" fill="none">
  <path d="M74.471 73.1587C75.2832 80.5048 81.7267 85.8203 88.8629 85.0313C95.9992 84.2422 101.126 77.6474 100.313 70.3013C99.5012 62.9552 93.0577 57.6396 85.9215 58.4287C78.7853 59.2177 73.6587 65.8126 74.471 73.1587Z" fill="url(#paint0_linear_253_2586)"/>
  <path d="M79.8167 16.2784L66.4083 29.7769L65.171 31.0225C61.9537 34.2615 56.9513 34.9103 53.0142 32.5993L44.2266 27.4412C40.2723 25.1201 35.2462 25.7856 32.0322 29.0559L9 52.4917" stroke="url(#paint1_linear_253_2586)" stroke-width="6"/>
  <path d="M82.3067 11.7494L71.7545 15.2668C70.4121 15.7143 70.2712 17.5571 71.5299 18.2035L75.7332 20.3619L77.8115 24.4624C78.4506 25.7233 80.2918 25.594 80.7484 24.2562L84.3238 13.781C84.7507 12.5301 83.5606 11.3314 82.3067 11.7494Z" fill="#10E0F9"/>
  <g filter="url(#filter0_b_253_2586)">
    <path d="M13 90.4916L13 65.4916L39 37.9916L64 52.9916L90.9166 24.9916L90.9166 90.4916L13 90.4916Z" fill="url(#paint2_linear_253_2586)"/>
    <path d="M63.7428 53.4204L64.0844 53.6254L64.3605 53.3382L90.4166 26.2332L90.4166 89.9916L13.5 89.9916L13.5 65.6906L39.0873 38.6271L63.7428 53.4204Z" stroke="url(#paint3_linear_253_2586)"/>
  </g>
  <defs>
    <filter id="filter0_b_253_2586" x="-1.70277" y="10.2889" width="107.323" height="94.9055" filterUnits="userSpaceOnUse" color-interpolation-filters="sRGB">
      <feFlood flood-opacity="0" result="BackgroundImageFix"/>
      <feGaussianBlur in="BackgroundImageFix" stdDeviation="7.35138"/>
      <feComposite in2="SourceAlpha" operator="in" result="effect1_backgroundBlur_253_2586"/>
      <feBlend mode="normal" in="SourceGraphic" in2="effect1_backgroundBlur_253_2586" result="shape"/>
    </filter>
    <linearGradient id="paint0_linear_253_2586" x1="159.805" y1="58.1457" x2="156.857" y2="103.424" gradientUnits="userSpaceOnUse">
      <stop stop-color="#2F44AF"/>
      <stop offset="0.984747" stop-color="#581A38"/>
    </linearGradient>
    <linearGradient id="paint1_linear_253_2586" x1="20.5" y1="35.9917" x2="75.5" y2="20.9917" gradientUnits="userSpaceOnUse">
      <stop stop-color="#00FF79" stop-opacity="0"/>
      <stop offset="1" stop-color="#11D6E4"/>
    </linearGradient>
    <linearGradient id="paint2_linear_253_2586" x1="17.3988" y1="86.7938" x2="74.6386" y2="18.7033" gradientUnits="userSpaceOnUse">
      <stop stop-color="white" stop-opacity="0.2"/>
      <stop offset="1" stop-color="white" stop-opacity="0.49"/>
    </linearGradient>
    <linearGradient id="paint3_linear_253_2586" x1="18.5" y1="30.1431" x2="71.8246" y2="97.9677" gradientUnits="userSpaceOnUse">
      <stop stop-color="white"/>
      <stop offset="1" stop-color="white" stop-opacity="0"/>
    </linearGradient>
  </defs>
</svg>