<svg width="36" height="36" viewBox="0 0 36 36" fill="none" xmlns="http://www.w3.org/2000/svg">
<g filter="url(#filter0_b_251_8966)">
<path d="M18 36C27.9411 36 36 27.9411 36 18C36 8.05887 27.9411 0 18 0C8.05887 0 0 8.05887 0 18C0 27.9411 8.05887 36 18 36Z" fill="url(#paint0_linear_251_8966)" fill-opacity="0.6"/>
<path d="M35.75 18C35.75 27.8031 27.8031 35.75 18 35.75C8.19695 35.75 0.25 27.8031 0.25 18C0.25 8.19695 8.19695 0.25 18 0.25C27.8031 0.25 35.75 8.19695 35.75 18Z" stroke="url(#paint1_linear_251_8966)" stroke-width="0.5"/>
</g>
<g clip-path="url(#clip0_251_8966)">
<path d="M14.2894 26.6667C21.8366 26.6667 25.9641 20.2551 25.9641 14.6955C25.9641 14.5138 25.9605 14.3321 25.9523 14.1516C26.7539 13.5584 27.4498 12.8171 27.999 11.9735C27.2644 12.3081 26.4722 12.5343 25.6425 12.6354C26.4898 12.1143 27.14 11.29 27.4463 10.3081C26.6529 10.7906 25.7751 11.1408 24.8409 11.3297C24.0922 10.5114 23.0254 10 21.846 10C19.5798 10 17.742 11.8845 17.742 14.207C17.742 14.5367 17.7784 14.858 17.8488 15.1661C14.4384 14.9904 11.4153 13.3165 9.39088 10.7702C9.03881 11.3923 8.83461 12.1143 8.83461 12.8845C8.83461 14.3442 9.5587 15.633 10.6607 16.3863C9.98823 16.3646 9.35567 16.1757 8.80175 15.8604C8.80175 15.8785 8.80175 15.8953 8.80175 15.9146C8.80175 17.9531 10.2159 19.6534 12.0936 20.0397C11.7486 20.136 11.3859 20.1877 11.0116 20.1877C10.7475 20.1877 10.4905 20.1613 10.2405 20.1119C10.7628 21.7834 12.2779 23 14.0734 23.0337C12.6687 24.1625 10.9001 24.8351 8.97778 24.8351C8.64683 24.8351 8.32058 24.8159 7.99902 24.7774C9.81454 25.9711 11.9716 26.6667 14.2882 26.6667" fill="white"/>
</g>
<defs>
<filter id="filter0_b_251_8966" x="-13.3857" y="-13.3857" width="62.7714" height="62.7714" filterUnits="userSpaceOnUse" color-interpolation-filters="sRGB">
<feFlood flood-opacity="0" result="BackgroundImageFix"/>
<feGaussianBlur in="BackgroundImageFix" stdDeviation="6.69284"/>
<feComposite in2="SourceAlpha" operator="in" result="effect1_backgroundBlur_251_8966"/>
<feBlend mode="normal" in="SourceGraphic" in2="effect1_backgroundBlur_251_8966" result="shape"/>
</filter>
<linearGradient id="paint0_linear_251_8966" x1="2.03241" y1="33.9676" x2="33.9676" y2="2.03241" gradientUnits="userSpaceOnUse">
<stop stop-color="white" stop-opacity="0.2"/>
<stop offset="1" stop-color="white" stop-opacity="0.49"/>
</linearGradient>
<linearGradient id="paint1_linear_251_8966" x1="2.5412" y1="2.83133" x2="32.6338" y2="35.0073" gradientUnits="userSpaceOnUse">
<stop stop-color="white"/>
<stop offset="1" stop-color="white" stop-opacity="0"/>
</linearGradient>
<clipPath id="clip0_251_8966">
<rect width="20" height="16.6667" fill="white" transform="translate(8 10)"/>
</clipPath>
</defs>
</svg>
