<svg width="43" height="42" viewBox="0 0 43 42" fill="none" xmlns="http://www.w3.org/2000/svg">
<g clip-path="url(#clip0_1_1355)">
<path fill-rule="evenodd" clip-rule="evenodd" d="M21.3333 9.33337C14.8875 9.33337 9.66663 14.5542 9.66663 21C9.66663 26.1625 13.0062 30.523 17.6437 32.0688C18.227 32.1709 18.4458 31.8209 18.4458 31.5146C18.4458 31.2375 18.4312 30.3188 18.4312 29.3417C15.5 29.8813 14.7416 28.6271 14.5083 27.9709C14.377 27.6355 13.8083 26.6 13.3125 26.323C12.9041 26.1042 12.3208 25.5646 13.2979 25.55C14.2166 25.5355 14.8729 26.3959 15.0916 26.7459C16.1416 28.5105 17.8187 28.0146 18.4895 27.7084C18.5916 26.95 18.8979 26.4396 19.2333 26.148C16.6375 25.8563 13.925 24.85 13.925 20.3875C13.925 19.1188 14.377 18.0688 15.1208 17.2521C15.0041 16.9605 14.5958 15.7646 15.2375 14.1605C15.2375 14.1605 16.2145 13.8542 18.4458 15.3563C19.3791 15.0938 20.3708 14.9625 21.3625 14.9625C22.3541 14.9625 23.3458 15.0938 24.2791 15.3563C26.5104 13.8396 27.4875 14.1605 27.4875 14.1605C28.1291 15.7646 27.7208 16.9605 27.6041 17.2521C28.3479 18.0688 28.8 19.1042 28.8 20.3875C28.8 24.8646 26.0729 25.8563 23.477 26.148C23.9 26.5125 24.2645 27.2125 24.2645 28.3063C24.2645 29.8667 24.25 31.1209 24.25 31.5146C24.25 31.8209 24.4687 32.1855 25.052 32.0688C29.6604 30.523 33 26.148 33 21C33 14.5542 27.7791 9.33337 21.3333 9.33337Z" fill="#B7B8CD"/>
</g>
<defs>
<clipPath id="clip0_1_1355">
<rect width="23.3333" height="23.3333" fill="white" transform="translate(9.66663 9.33337)"/>
</clipPath>
</defs>
</svg>
