<svg width="36" height="36" viewBox="0 0 36 36" fill="none" xmlns="http://www.w3.org/2000/svg">
<path d="M13.6407 12.2969C16.756 12.2969 19.2812 14.8397 19.2812 17.9763C19.2812 21.1128 16.7558 23.6555 13.6407 23.6555C10.5256 23.6555 8 21.1128 8 17.9763C8 14.8397 10.5254 12.2969 13.6407 12.2969ZM22.6485 12.6296C24.2061 12.6296 25.4688 15.0231 25.4688 17.9763H25.469C25.469 20.9287 24.2063 23.323 22.6487 23.323C21.091 23.323 19.8283 20.9287 19.8283 17.9763C19.8283 15.0239 21.0908 12.6296 22.6485 12.6296ZM27.0081 13.1865C27.5558 13.1865 28 15.3309 28 17.9763C28 20.6209 27.556 22.7661 27.0081 22.7661C26.4602 22.7661 26.0163 20.6215 26.0163 17.9763C26.0163 15.3311 26.4604 13.1865 27.0081 13.1865Z" fill="#B7B8CD"/>
</svg>
