<svg width="36" height="36" viewBox="0 0 36 36" fill="none" xmlns="http://www.w3.org/2000/svg">
<g clip-path="url(#clip0_251_9112)">
<path fill-rule="evenodd" clip-rule="evenodd" d="M26.9997 10.5904L23.8364 25.9725C23.8364 25.9725 23.3938 27.0395 22.1774 26.5274L17.6768 23.1995L17.6768 23.1995L14.8887 21.0977L14.9004 21.0016C14.9004 21.0016 22.9962 13.9829 23.328 13.684C23.6598 13.3851 23.549 13.3211 23.549 13.3211C23.5709 12.9582 22.9517 13.3211 22.9517 13.3211L12.2241 19.8924L12.2243 19.8931L12.2235 19.8928L7.75558 18.4418C7.75558 18.4418 7.07009 18.2069 7.00373 17.6949C6.93737 17.1828 7.77814 16.9057 7.77814 16.9057L25.5398 10.1846C25.5398 10.1846 26.9997 9.56571 26.9997 10.5898V10.5904Z" fill="#B7B8CD"/>
</g>
<defs>
<clipPath id="clip0_251_9112">
<rect width="20" height="16.6667" fill="white" transform="translate(7 10)"/>
</clipPath>
</defs>
</svg>
