<svg width="36" height="36" viewBox="0 0 36 36" fill="none" xmlns="http://www.w3.org/2000/svg">
<g id="Frame 427321437">
<path id="Vector" d="M26.6349 26.0618L20.2685 17.0235L19.5488 16.0013L14.9947 9.53581L14.6174 9H9.02148L10.3863 10.9382L16.4414 19.5357L17.1612 20.5569L22.0263 27.4648L22.4038 28.0002H27.9997L26.6349 26.062V26.0618ZM23.0688 26.763L18.0143 19.5864L17.2946 18.5648L11.4293 10.237H13.9522L18.6955 16.9718L19.4152 17.9933L25.5918 26.7629H23.0688V26.763Z" fill="#B7B8CD"/>
<path id="Vector_2" d="M17.295 18.5645L18.0147 19.586L17.1614 20.5565L10.6145 27.9998H9L16.4417 19.5354L17.295 18.5645Z" fill="#B7B8CD"/>
<path id="Vector_3" d="M27.3267 9L20.2693 17.0235L19.416 17.9933L18.6963 16.9717L19.5496 16.0013L24.3301 10.5637L25.7122 9H27.3267Z" fill="#B7B8CD"/>
</g>
</svg>