<svg xmlns="http://www.w3.org/2000/svg" width="74" height="76" viewBox="0 0 74 76" fill="none">
  <g clip-path="url(#clip0_15_4102)">
    <path d="M38.5597 13.9603C35.3392 9.99252 30.3444 7.52408 24.7808 7.77478C16.3486 8.15565 9.43024 14.9101 8.86135 23.3327C8.37441 30.5017 12.4145 36.7885 18.4024 39.6282C18.3976 39.4209 18.388 39.2136 18.388 39.0014C18.3928 26.7219 27.0323 16.4673 38.5597 13.9652V13.9603Z" fill="white"/>
    <path d="M44.0365 13.374C42.1563 13.374 40.3242 13.5813 38.5597 13.9621C41.1583 17.1682 42.5998 21.353 42.2382 25.8752C41.5874 33.9844 35.0258 40.5364 26.9117 41.1776C23.8503 41.4187 20.9528 40.8353 18.4024 39.6252C18.4024 39.7071 18.4024 39.7891 18.4072 39.8711H18.3831L18.3687 75.4753L38.2077 75.485V63.9817C40.0783 64.4156 42.0164 64.6518 44.0124 64.6518C58.1722 64.6567 69.6562 53.1823 69.6658 39.0225C69.6754 24.8628 58.1963 13.3788 44.0365 13.3691V13.374Z" fill="white"/>
    <path d="M64.0539 57.9349C65.9968 60.0851 67.8675 62.3077 69.6079 64.6507C71.3676 67.1481 73.2913 69.5635 73.9614 72.6587C74.1301 73.6326 73.8168 74.8089 72.867 75.3248C70.5432 76.5156 67.0045 74.2256 65.0085 73.1794C57.4296 68.6764 50.7186 62.9585 44.1473 57.1779C31.2073 45.4722 19.0387 32.8696 8.62502 18.8256C6.23855 15.4074 -1.4512 5.14314 0.241026 1.27657C1.08473 -0.516901 3.36032 -0.102281 4.75363 0.601609C8.78894 2.58793 12.0625 5.58669 15.3072 8.57099L15.1577 8.76383C12.723 7.22588 10.2931 5.66383 7.75722 4.32837C6.21444 3.53287 4.71024 2.7181 3.07587 2.41437C2.80106 2.37097 2.53108 2.37097 2.43465 2.41437C2.38644 2.43365 2.40091 2.45293 2.44912 2.42883C2.51179 2.40954 2.56965 2.34687 2.58411 2.32276C2.61304 2.28902 2.58411 2.4674 2.64679 2.69881C3.37478 5.201 5.1104 7.4573 6.59532 9.622C8.24897 11.9121 10.0183 14.1491 11.8311 16.3523C24.6988 31.7126 38.6753 46.2339 53.457 59.7669C56.6341 62.6403 59.8643 65.4462 63.244 68.0738C65.6642 69.901 68.176 71.9355 70.9916 72.9624C71.2519 73.0444 71.5026 73.0829 71.6231 73.0878C71.681 73.0878 71.6954 73.0878 71.6521 73.1167C71.6183 73.1408 71.5556 73.2228 71.5508 73.2517C71.7292 72.7744 71.4062 71.8391 71.1796 71.14C70.4564 69.173 69.415 67.3265 68.3737 65.48C66.937 63.0019 65.3701 60.5769 63.7839 58.1566L64.0587 57.9445L64.0539 57.9349Z" fill="white"/>
  </g>
  <defs>
    <clipPath id="clip0_15_4102">
      <rect width="74" height="75.6633" fill="white"/>
    </clipPath>
  </defs>
</svg>