<svg width="539" height="90" viewBox="0 0 539 90" fill="none" xmlns="http://www.w3.org/2000/svg">
<g clip-path="url(#clip0_6_4958)">
<path d="M45.866 16.6049C42.0352 11.8853 36.0941 8.94912 29.4763 9.24733C19.4463 9.70037 11.2171 17.7346 10.5404 27.7531C9.96118 36.2806 14.7668 43.7586 21.8893 47.1363C21.8836 46.8897 21.8721 46.6432 21.8721 46.3908C21.8778 31.7846 32.1544 19.5869 45.866 16.6107V16.6049Z" fill="white"/>
<path d="M52.3811 15.9071C50.1446 15.9071 47.9655 16.1537 45.8666 16.6067C48.9575 20.4203 50.6722 25.398 50.2421 30.7771C49.4679 40.4228 41.663 48.2163 32.0116 48.979C28.3701 49.2657 24.9235 48.5718 21.8899 47.1324C21.8899 47.2299 21.8899 47.3274 21.8956 47.4249H21.8669L21.8497 89.7755L45.4479 89.7869V76.104C47.673 76.6201 49.9783 76.9011 52.3525 76.9011C69.1952 76.9068 82.8552 63.2583 82.8667 46.4156C82.8782 29.5728 69.2239 15.9128 52.3811 15.9014V15.9071Z" fill="white"/>
<path d="M76.1907 68.9109C78.5018 71.4686 80.7269 74.1123 82.7971 76.8993C84.8903 79.8699 87.1784 82.743 87.9755 86.4246C88.1762 87.583 87.8035 88.9823 86.6737 89.5959C83.9096 91.0124 79.7004 88.2884 77.3262 87.0439C68.3113 81.6878 60.3286 74.8864 52.5123 68.0106C37.1204 54.0868 22.6461 39.0963 10.2592 22.3912C7.42051 18.3253 -1.7263 6.1162 0.286573 1.51699C1.29014 -0.616308 3.99691 -0.123126 5.65423 0.714137C10.4542 3.07682 14.348 6.64379 18.2074 10.1936L18.0297 10.4229C15.1336 8.59358 12.2434 6.73555 9.22693 5.14704C7.39184 4.20082 5.60262 3.23166 3.65856 2.87037C3.33169 2.81876 3.01054 2.81876 2.89585 2.87037C2.8385 2.89331 2.85571 2.91625 2.91305 2.88758C2.98761 2.86464 3.05642 2.79009 3.07363 2.76142C3.10803 2.72127 3.07363 2.93346 3.14818 3.20872C4.01411 6.18502 6.0786 8.86885 7.84488 11.4437C9.81187 14.1677 11.9165 16.8286 14.0727 19.4493C29.3786 37.72 46.0034 54.9928 63.5859 71.0901C67.3651 74.5079 71.2073 77.8455 75.2273 80.9709C78.1061 83.1444 81.0939 85.5644 84.4429 86.7859C84.7526 86.8834 85.0508 86.9293 85.1942 86.935C85.263 86.935 85.2802 86.935 85.2286 86.9694C85.1884 86.9981 85.1139 87.0956 85.1082 87.13C85.3204 86.5622 84.9361 85.4497 84.6666 84.6182C83.8064 82.2784 82.5677 80.0821 81.329 77.8857C79.6201 74.9381 77.7563 72.0535 75.8696 69.1747L76.1965 68.9224L76.1907 68.9109Z" fill="white"/>
</g>
<path d="M152.736 22.5314C148.334 20.5496 143.065 19.5542 136.909 19.5542H108.334V89.0058H121.229V68.9603H136.909C143.065 68.9603 148.334 67.9649 152.736 65.9831C157.138 64.0014 160.526 61.1521 162.909 57.4535C165.293 53.7458 166.48 49.3531 166.48 44.2572C166.48 39.1614 165.293 34.7687 162.909 31.061C160.526 27.3532 157.138 24.5131 152.736 22.5314ZM149.165 54.4307C146.288 56.8508 142.005 58.0563 136.316 58.0563H121.238V30.4765H136.316C142.005 30.4765 146.288 31.6637 149.165 34.0473C152.042 36.4308 153.485 39.8372 153.485 44.2664C153.485 48.6956 152.042 52.0198 149.165 54.4398V54.4307Z" fill="white"/>
<path d="M223.776 65.837C228.178 63.8827 231.566 61.0791 233.95 57.4078C236.333 53.7366 237.521 49.3531 237.521 44.2572C237.521 39.1614 236.333 34.7687 233.95 31.061C231.566 27.3532 228.178 24.5131 223.776 22.5314C219.375 20.5496 214.105 19.5542 207.95 19.5542H179.375V89.0058H192.27V68.7685H207.95C208.872 68.7685 209.776 68.7411 210.662 68.6955L224.817 89.0058H238.708L222.763 66.248C223.101 66.111 223.448 65.9831 223.776 65.837ZM220.206 34.0381C223.082 36.4217 224.525 39.8281 224.525 44.2572C224.525 48.6864 223.082 52.0289 220.206 54.4764C217.329 56.9238 213.046 58.1476 207.356 58.1476H192.279V30.4674H207.356C213.046 30.4674 217.329 31.6546 220.206 34.0381Z" fill="white"/>
<path d="M311.137 28.7312C307.767 25.5258 303.813 23.0235 299.283 21.2427C294.753 19.4527 289.776 18.5669 284.351 18.5669C278.927 18.5669 274.032 19.4619 269.466 21.2427C264.9 23.0326 260.936 25.5258 257.557 28.7312C254.187 31.9367 251.566 35.7083 249.722 40.0462C247.868 44.375 246.945 49.1238 246.945 54.2836C246.945 59.4434 247.868 64.1922 249.722 68.5209C251.575 72.8497 254.187 76.6213 257.557 79.8359C260.927 83.0414 264.9 85.5437 269.466 87.3245C274.032 89.1144 279.027 90.0003 284.452 90.0003C289.877 90.0003 294.753 89.1053 299.283 87.3245C303.813 85.5345 307.767 83.0597 311.137 79.8816C314.507 76.7035 317.118 72.9319 318.972 68.5666C320.826 64.2013 321.748 59.4342 321.748 54.2744C321.748 49.1147 320.826 44.3658 318.972 40.0371C317.118 35.7083 314.507 31.9367 311.137 28.7221V28.7312ZM306.927 64.0552C305.703 66.9958 303.995 69.5803 301.813 71.7903C299.63 74.0095 297.055 75.7081 294.077 76.9044C291.1 78.0916 287.858 78.6944 284.351 78.6944C280.845 78.6944 277.603 78.1008 274.626 76.9044C271.648 75.7172 269.073 74.0095 266.89 71.7903C264.708 69.5711 263 66.9776 261.776 64.0004C260.553 61.0233 259.941 57.7813 259.941 54.2744C259.941 50.7676 260.553 47.4434 261.776 44.5028C263 41.5622 264.717 38.9777 266.936 36.7677C269.155 34.5577 271.731 32.8499 274.671 31.6536C277.612 30.4664 280.836 29.8636 284.342 29.8636C287.849 29.8636 291.091 30.4572 294.068 31.6536C297.045 32.8408 299.621 34.5485 301.803 36.7677C303.986 38.9869 305.685 41.5622 306.918 44.5028C308.141 47.4434 308.753 50.7037 308.753 54.2744C308.753 57.8452 308.141 61.1054 306.918 64.0461L306.927 64.0552Z" fill="white"/>
<path d="M325.529 30.4674H348.543V89.0058H361.447V30.4674H384.46V19.5542H325.529V30.4674Z" fill="white"/>
<path d="M452.424 28.7312C449.054 25.5258 445.1 23.0235 440.57 21.2427C436.04 19.4527 431.063 18.5669 425.639 18.5669C420.214 18.5669 415.319 19.4619 410.753 21.2427C406.187 23.0326 402.223 25.5258 398.844 28.7312C395.474 31.9367 392.853 35.7083 391.009 40.0462C389.155 44.375 388.232 49.1238 388.232 54.2836C388.232 59.4434 389.155 64.1922 391.009 68.5209C392.863 72.8497 395.474 76.6213 398.844 79.8359C402.214 83.0414 406.187 85.5437 410.753 87.3245C415.319 89.1144 420.314 90.0003 425.739 90.0003C431.164 90.0003 436.04 89.1053 440.57 87.3245C445.1 85.5345 449.054 83.0597 452.424 79.8816C455.794 76.7035 458.406 72.9319 460.259 68.5666C462.113 64.2013 463.036 59.4342 463.036 54.2744C463.036 49.1147 462.113 44.3658 460.259 40.0371C458.406 35.7083 455.794 31.9367 452.424 28.7221V28.7312ZM448.214 64.0552C446.99 66.9958 445.282 69.5803 443.1 71.7903C440.917 74.0095 438.342 75.7081 435.365 76.9044C432.387 78.0916 429.145 78.6944 425.639 78.6944C422.132 78.6944 418.89 78.1008 415.913 76.9044C412.935 75.7172 410.36 74.0095 408.178 71.7903C405.995 69.5711 404.287 66.9776 403.063 64.0004C401.84 61.0233 401.228 57.7813 401.228 54.2744C401.228 50.7676 401.84 47.4434 403.063 44.5028C404.287 41.5622 406.004 38.9777 408.223 36.7677C410.442 34.5577 413.018 32.8499 415.958 31.6536C418.899 30.4664 422.123 29.8636 425.629 29.8636C429.136 29.8636 432.378 30.4572 435.355 31.6536C438.333 32.8408 440.908 34.5485 443.091 36.7677C445.273 38.9869 446.972 41.5622 448.205 44.5028C449.428 47.4434 450.04 50.7037 450.04 54.2744C450.04 57.8452 449.428 61.1054 448.205 64.0461L448.214 64.0552Z" fill="white"/>
<path d="M525.647 19.5542V66.5767L487.355 19.5542H476.734V89.0058H489.537V41.9833L527.829 89.0058H538.45V19.5542H525.647Z" fill="white"/>
<defs>
<clipPath id="clip0_6_4958">
<rect width="88.0215" height="90" fill="white"/>
</clipPath>
</defs>
</svg>
