<svg width="354" height="99" viewBox="0 0 354 99" fill="none" xmlns="http://www.w3.org/2000/svg">
<path d="M223.953 86.7231H169.283C163.426 86.7231 158.349 85.9421 153.273 84.3801C148.587 82.8181 144.291 80.0846 140.777 76.9606C137.262 73.8366 134.529 69.5411 132.576 65.2456C130.624 60.5596 129.452 55.0926 129.452 49.2351C129.452 43.7681 130.624 38.6916 132.576 34.0057C134.529 29.3197 137.653 25.4147 141.167 21.9002C144.682 18.3857 148.977 16.0427 153.663 14.0902C158.349 12.1377 163.426 11.3567 169.283 11.3567C174.75 11.3567 179.827 12.1377 184.903 14.0902C189.98 16.0427 193.885 18.3857 197.399 21.9002C200.914 25.4147 203.647 29.3197 205.6 34.0057C207.552 38.6916 208.724 43.7681 208.724 49.2351C208.724 51.9686 208.333 54.3116 207.943 57.0451C207.552 59.3881 206.381 61.7311 205.209 64.0741C204.038 66.4171 202.476 68.3696 200.523 69.9316C198.571 71.4936 196.618 73.0556 193.885 74.2271V74.6176H219.267L223.953 86.7231ZM145.853 48.8446C145.853 51.9686 146.634 55.0926 147.806 57.8261C148.977 60.5596 150.539 62.9026 152.492 65.2456C154.444 67.1981 156.787 68.7601 159.521 69.9316C162.254 71.1031 164.988 71.8841 168.112 71.8841C171.236 71.8841 173.969 71.1031 176.703 69.9316C179.436 68.7601 181.779 67.1981 183.732 65.2456C185.684 63.2931 187.637 60.5596 188.808 57.8261C189.98 55.0926 190.761 51.9686 190.761 48.8446C190.761 45.7206 189.98 42.5966 188.808 39.8631C187.637 37.1296 186.075 34.7867 183.732 32.8342C181.779 30.8817 179.436 28.9292 176.703 27.7577C173.969 26.5862 171.236 25.8052 168.112 25.8052C164.988 25.8052 162.254 26.5862 159.521 27.7577C156.787 28.9292 154.444 30.4912 152.492 32.8342C150.539 34.7867 148.977 37.1296 147.806 39.8631C146.634 42.5966 145.853 45.7206 145.853 48.8446Z" fill="#4A3CE8"/>
<path d="M214.586 12.9299H233.33L251.683 61.3519H252.074L270.818 12.9299H288.39L257.931 86.7343H245.045L214.586 12.9299Z" fill="#4A3CE8"/>
<path d="M316.119 12.9297H353.997L347.749 27.7687H296.984L291.127 41.4361H341.892L336.034 56.6656H285.269L279.021 71.5046H353.216L346.968 86.3436H284.879L316.119 12.9297Z" fill="#4A3CE8"/>
<path d="M223.953 86.7231H169.283C163.426 86.7231 158.349 85.9421 153.273 84.3801C148.587 82.8181 144.291 80.0846 140.777 76.9606C137.262 73.8366 134.529 69.5411 132.576 65.2456C130.624 60.5596 129.452 55.0926 129.452 49.2351C129.452 43.7681 130.624 38.6916 132.576 34.0057C134.529 29.3197 137.653 25.4147 141.167 21.9002C144.682 18.3857 148.977 16.0427 153.663 14.0902C158.349 12.1377 163.426 11.3567 169.283 11.3567C174.75 11.3567 179.827 12.1377 184.903 14.0902C189.98 16.0427 193.885 18.3857 197.399 21.9002C200.914 25.4147 203.647 29.3197 205.6 34.0057C207.552 38.6916 208.724 43.7681 208.724 49.2351C208.724 51.9686 208.333 54.3116 207.943 57.0451C207.552 59.3881 206.381 61.7311 205.209 64.0741C204.038 66.4171 202.476 68.3696 200.523 69.9316C198.571 71.4936 196.618 73.0556 193.885 74.2271V74.6176H219.267L223.953 86.7231ZM145.853 48.8446C145.853 51.9686 146.634 55.0926 147.806 57.8261C148.977 60.5596 150.539 62.9026 152.492 65.2456C154.444 67.1981 156.787 68.7601 159.521 69.9316C162.254 71.1031 164.988 71.8841 168.112 71.8841C171.236 71.8841 173.969 71.1031 176.703 69.9316C179.436 68.7601 181.779 67.1981 183.732 65.2456C185.684 63.2931 187.637 60.5596 188.808 57.8261C189.98 55.0926 190.761 51.9686 190.761 48.8446C190.761 45.7206 189.98 42.5966 188.808 39.8631C187.637 37.1296 186.075 34.7867 183.732 32.8342C181.779 30.8817 179.436 28.9292 176.703 27.7577C173.969 26.5862 171.236 25.8052 168.112 25.8052C164.988 25.8052 162.254 26.5862 159.521 27.7577C156.787 28.9292 154.444 30.4912 152.492 32.8342C150.539 34.7867 148.977 37.1296 147.806 39.8631C146.634 42.5966 145.853 45.7206 145.853 48.8446Z" fill="white"/>
<path d="M214.586 12.9299H233.33L251.683 61.3519H252.074L270.818 12.9299H288.39L257.931 86.7343H245.045L214.586 12.9299Z" fill="white"/>
<path d="M316.119 12.9297H353.997L347.749 27.7687H296.984L291.127 41.4361H341.892L336.034 56.6656H285.269L279.021 71.5046H353.216L346.968 86.3436H284.879L316.119 12.9297Z" fill="white"/>
<path fill-rule="evenodd" clip-rule="evenodd" d="M104.023 64.4142L57.5146 81.7572V92.7293L104.023 75.3863V64.4142Z" fill="white"/>
<path fill-rule="evenodd" clip-rule="evenodd" d="M57.5143 67.2485L104.023 49.9055V38.9333L57.8694 56.2764L26.627 43.8885L30.8873 56.6303L55.7392 66.5406L57.5143 67.2485Z" fill="white"/>
<path d="M52.544 0L0 17.343L20.5916 79.9903L31.5974 84.2375L57.5144 41.7648L103.668 24.4218V17.343L52.544 0ZM47.9287 34.3321L28.4022 70.7878L12.781 24.0679L52.544 10.9721L83.4314 21.2364L47.9287 34.3321Z" fill="white"/>
</svg>
