<svg width="24" height="24" viewBox="0 0 24 24" fill="none" xmlns="http://www.w3.org/2000/svg">
<path d="M18.1288 16.8119C17.6494 16.8119 17.2572 16.431 17.2572 15.9655V6.90056H7.92238C7.443 6.90056 7.05078 6.51968 7.05078 6.05416C7.05078 5.58864 7.443 5.20776 7.92238 5.20776H18.1288C18.6082 5.20776 19.0004 5.58864 19.0004 6.05416V15.9655C19.0004 16.431 18.6082 16.8119 18.1288 16.8119Z" fill="white"/>
<path d="M5.87377 18.7924C5.64715 18.7924 5.42926 18.7078 5.25494 18.547C4.91502 18.2169 4.91502 17.6836 5.25494 17.3536L17.5009 5.46168C17.8408 5.13159 18.3899 5.13159 18.7298 5.46168C19.0698 5.79178 19.0698 6.32501 18.7298 6.6551L6.48388 18.547C6.30957 18.7163 6.09167 18.7924 5.86506 18.7924H5.87377Z" fill="white"/>
</svg>
