<svg width="16" height="16" viewBox="0 0 16 16" fill="none" xmlns="http://www.w3.org/2000/svg">
<g id="Group 2">
<path id="Vector" d="M8.07105 15.4747H2.80363C1.25738 15.4747 0 14.2537 0 12.7521V2.86015C0 1.56487 1.08747 0.51709 2.41282 0.51709H8.06256C8.52983 0.51709 8.91214 0.888349 8.91214 1.34211C8.91214 1.79587 8.52983 2.16713 8.06256 2.16713H2.41282C2.01352 2.16713 1.69917 2.48064 1.69917 2.86015V12.7604C1.69917 13.3462 2.19193 13.8329 2.80363 13.8329H8.07105C8.53833 13.8329 8.92064 14.2042 8.92064 14.6579C8.92064 15.1117 8.53833 15.483 8.07105 15.483V15.4747Z" fill="white"/>
<path id="Vector_2" d="M15.1479 8.81679H5.08884C4.62157 8.81679 4.23926 8.44553 4.23926 7.99177C4.23926 7.53801 4.62157 7.16675 5.08884 7.16675H15.1479C15.6152 7.16675 15.9975 7.53801 15.9975 7.99177C15.9975 8.44553 15.6152 8.81679 15.1479 8.81679Z" fill="white"/>
<path id="Vector_3" d="M12.0895 12.3808C11.8941 12.3808 11.7072 12.3148 11.5458 12.191C11.189 11.9023 11.138 11.3825 11.4354 11.0278L14.0351 7.99169L11.4354 4.95562C11.138 4.60911 11.1805 4.08935 11.5458 3.79234C11.9026 3.50359 12.4464 3.54484 12.7437 3.89959L15.8022 7.46368C16.0656 7.76894 16.0656 8.21445 15.8022 8.51971L12.7437 12.0838C12.5738 12.2818 12.3359 12.3808 12.0895 12.3808Z" fill="white"/>
</g>
</svg>
