<svg xmlns="http://www.w3.org/2000/svg" width="18" height="18" viewBox="0 0 18 18" fill="none">
  <g clipPath="url(#clip0_15_3363)">
    <path d="M9.01277 3.26311C8.26002 2.33568 7.09256 1.75871 5.79214 1.81731C3.82122 1.90634 2.20414 3.4851 2.07117 5.45377C1.95735 7.12945 2.90168 8.5989 4.30127 9.26264C4.30014 9.21418 4.29789 9.16573 4.29789 9.11614C4.29902 6.24597 6.31839 3.84909 9.01277 3.26423V3.26311Z" fill="#010305"/>
    <path d="M10.2929 3.12588C9.85338 3.12588 9.42517 3.17434 9.01273 3.26336C9.62012 4.01274 9.95706 4.99088 9.87254 6.04789C9.72041 7.94331 8.18672 9.47475 6.29017 9.62462C5.5746 9.68097 4.89734 9.54462 4.30122 9.26177C4.30122 9.28092 4.30122 9.30008 4.30235 9.31924H4.29672L4.29333 17.6413L8.93046 17.6435V14.9548C9.3677 15.0562 9.8207 15.1114 10.2872 15.1114C13.5969 15.1126 16.2811 12.4306 16.2834 9.12091C16.2856 5.81125 13.6025 3.12701 10.2929 3.12476V3.12588Z" fill="#010305"/>
    <path d="M14.9718 13.5413C15.4259 14.0439 15.8631 14.5634 16.2699 15.1111C16.6813 15.6948 17.1309 16.2594 17.2875 16.9828C17.327 17.2105 17.2537 17.4854 17.0317 17.606C16.4886 17.8844 15.6614 17.3491 15.1949 17.1045C13.4234 16.052 11.8548 14.7156 10.3189 13.3644C7.29431 10.6283 4.45006 7.68267 2.01599 4.40006C1.45818 3.6011 -0.3392 1.20196 0.0563367 0.298199C0.253541 -0.121002 0.785431 -0.0240899 1.1111 0.140435C2.0543 0.604711 2.81946 1.30563 3.57785 2.00317L3.54292 2.04825C2.97384 1.68877 2.40589 1.32366 1.81315 1.01152C1.45255 0.825581 1.10096 0.635137 0.718945 0.564144C0.654712 0.554002 0.591607 0.554002 0.569069 0.564144C0.5578 0.568651 0.561181 0.573159 0.57245 0.567524C0.587099 0.563017 0.600622 0.548367 0.604002 0.542733C0.610764 0.534845 0.604002 0.576539 0.618652 0.63063C0.788811 1.21548 1.19449 1.74286 1.54157 2.24884C1.92809 2.78411 2.34166 3.30698 2.76537 3.82197C5.77302 7.41222 9.03986 10.8064 12.4949 13.9696C13.2375 14.6412 13.9925 15.297 14.7825 15.9112C15.3482 16.3383 15.9353 16.8138 16.5934 17.0538C16.6542 17.073 16.7128 17.082 16.741 17.0831C16.7545 17.0831 16.7579 17.0831 16.7477 17.0899C16.7399 17.0955 16.7252 17.1147 16.7241 17.1215C16.7658 17.0099 16.6903 16.7913 16.6373 16.6279C16.4683 16.1681 16.2249 15.7365 15.9815 15.3049C15.6457 14.7257 15.2794 14.1589 14.9087 13.5932L14.9729 13.5436L14.9718 13.5413Z" fill="#010305"/>
  </g>
  <defs>
    <clipPath id="clip0_15_3363">
      <rect width="17.2965" height="17.6853" fill="white"/>
    </clipPath>
  </defs>
</svg>