<svg width="24" height="24" viewBox="0 0 24 24" fill="none" xmlns="http://www.w3.org/2000/svg">
<path d="M19.3339 7.43378V6.48653C19.3339 5.78261 18.9766 5.11346 18.3536 4.63549C17.6299 4.07931 16.6496 3.87943 15.7426 4.07062L4.95007 5.46976C3.31929 5.50452 2 6.77331 2 8.33757V16.9671C2 18.6356 3.43839 20 5.19743 20H18.8026C20.5616 20 22 18.6356 22 16.9671V10.4146C22 8.91982 20.8456 7.67711 19.3339 7.43378ZM5.02336 7.20783C5.02336 7.20783 5.10582 7.20783 5.15163 7.20783L16.0632 5.7913C16.503 5.7044 16.9153 5.77392 17.2084 5.99987C17.3917 6.13892 17.5016 6.33011 17.5016 6.49522V7.39033H4.86761C4.68438 7.39033 4.51031 7.40771 4.33623 7.44247C4.52863 7.31211 4.75767 7.21652 5.02336 7.21652V7.20783ZM20.1677 16.9671C20.1677 17.6797 19.5538 18.2619 18.8026 18.2619H5.19743C4.44618 18.2619 3.83234 17.6797 3.83234 16.9671V10.1104C3.83234 9.5716 4.29959 9.12839 4.86761 9.12839H18.7934C19.5447 9.12839 20.1585 9.71064 20.1585 10.4233V16.9758L20.1677 16.9671Z" fill="white"/>
</svg>
