<svg width="28" height="28" viewBox="0 0 28 28" fill="none" xmlns="http://www.w3.org/2000/svg">
<g clipPath="url(#clip0_712_2182)">
<rect width="28" height="28" fill="white"/>
<g clipPath="url(#clip1_712_2182)">
<rect width="19" height="19.4271" transform="translate(4 3.97754)" fill="white"/>
<path d="M13.9003 7.56181C13.0734 6.54305 11.791 5.90926 10.3625 5.97363C8.19743 6.07142 6.42109 7.80567 6.27502 9.96823C6.15 11.8089 7.18733 13.4231 8.72476 14.1522C8.72352 14.099 8.72105 14.0458 8.72105 13.9913C8.72228 10.8384 10.9405 8.2055 13.9003 7.56305V7.56181Z" fill="url(#paint0_linear_712_2182)"/>
<path d="M15.3069 7.41116C14.8241 7.41116 14.3533 7.46526 13.9003 7.56305C14.5675 8.38623 14.938 9.45983 14.8452 10.6209C14.6781 12.703 12.9933 14.3853 10.91 14.5499C10.124 14.6118 9.37959 14.4629 8.72476 14.1522C8.72476 14.1733 8.72516 14.1934 8.7264 14.2145H8.72021L8.7165 23.3561L13.8103 23.3586V20.405C14.2906 20.5164 14.7882 20.5771 15.3007 20.5771C18.9363 20.5783 21.8849 17.6322 21.8874 13.9966C21.8899 10.361 18.9425 7.4124 15.3069 7.40992V7.41116Z" fill="url(#paint1_linear_712_2182)"/>
<path d="M20.4463 18.8523C20.9451 19.4044 21.4254 19.9751 21.8723 20.5767C22.3241 21.2179 22.818 21.8381 22.9901 22.6328C23.0334 22.8828 22.953 23.1849 22.7091 23.3173C22.1124 23.6231 21.2038 23.0351 20.6914 22.7665C18.7454 21.6103 17.0223 20.1422 15.3351 18.658C12.0127 15.6525 8.88832 12.4167 6.21453 8.81077C5.60179 7.93313 3.62739 5.29771 4.06189 4.30494C4.27851 3.84446 4.86278 3.95091 5.22053 4.13164C6.25662 4.64164 7.09713 5.41159 7.93022 6.17783L7.89184 6.22735C7.26672 5.83247 6.64284 5.4314 5.99172 5.08851C5.5956 4.88426 5.20939 4.67506 4.78975 4.59708C4.71919 4.58594 4.64987 4.58594 4.62511 4.59708C4.61274 4.60203 4.61645 4.60698 4.62883 4.60079C4.64492 4.59584 4.65977 4.57975 4.66349 4.57356C4.67092 4.56489 4.66349 4.61069 4.67958 4.67011C4.8665 5.31256 5.31213 5.89189 5.69339 6.44769C6.11798 7.03567 6.57228 7.61004 7.03771 8.17575C10.3416 12.1196 13.9302 15.848 17.7254 19.3227C18.5412 20.0605 19.3706 20.7809 20.2383 21.4556C20.8597 21.9247 21.5047 22.4471 22.2276 22.7108C22.2944 22.7318 22.3588 22.7417 22.3897 22.743C22.4046 22.743 22.4083 22.743 22.3972 22.7504C22.3885 22.7566 22.3724 22.7776 22.3712 22.785C22.417 22.6625 22.334 22.4223 22.2758 22.2429C22.0902 21.7378 21.8228 21.2637 21.5554 20.7896C21.1865 20.1533 20.7842 19.5307 20.377 18.9093L20.4475 18.8548L20.4463 18.8523Z" fill="url(#paint2_linear_712_2182)"/>
</g>
</g>
<defs>
<linearGradient id="paint0_linear_712_2182" x1="9.56484" y1="-41.2015" x2="41.3786" y2="-35.852" gradientUnits="userSpaceOnUse">
<stop stop-color="#2F44AF"/>
<stop offset="0.984747" stop-color="#581A38"/>
</linearGradient>
<linearGradient id="paint1_linear_712_2182" x1="9.56484" y1="-41.2015" x2="41.3786" y2="-35.852" gradientUnits="userSpaceOnUse">
<stop stop-color="#2F44AF"/>
<stop offset="0.984747" stop-color="#581A38"/>
</linearGradient>
<linearGradient id="paint2_linear_712_2182" x1="9.56484" y1="-41.2015" x2="41.3786" y2="-35.852" gradientUnits="userSpaceOnUse">
<stop stop-color="#2F44AF"/>
<stop offset="0.984747" stop-color="#581A38"/>
</linearGradient>
<clipPath id="clip0_712_2182">
<rect width="28" height="28" rx="14" fill="white"/>
</clipPath>
<clipPath id="clip1_712_2182">
<rect width="19" height="19.4271" fill="white" transform="translate(4 3.97754)"/>
</clipPath>
</defs>
</svg>
