<svg width="32" height="32" viewBox="0 0 32 32" fill="none" xmlns="http://www.w3.org/2000/svg">
<rect width="32" height="32" rx="5" fill="black"/>
<g clip-path="url(#clip0_15_3142)">
<path d="M16.548 7.90502C15.4165 6.51092 13.6615 5.64364 11.7068 5.73172C8.74409 5.86554 6.31332 8.23872 6.11343 11.198C5.94235 13.7169 7.36185 15.9257 9.4657 16.9235C9.46401 16.8506 9.46062 16.7778 9.46062 16.7032C9.46232 12.3888 12.4978 8.78586 16.548 7.90671V7.90502Z" fill="white"/>
<path d="M18.4723 7.69896C17.8117 7.69896 17.168 7.7718 16.548 7.90562C17.461 9.03208 17.9675 10.5024 17.8405 12.0913C17.6118 14.9405 15.3064 17.2425 12.4555 17.4678C11.3798 17.5525 10.3618 17.3475 9.46571 16.9224C9.46571 16.9512 9.46572 16.98 9.46741 17.0087H9.45894L9.45386 29.5184L16.4243 29.5217V25.4801C17.0816 25.6325 17.7625 25.7155 18.4638 25.7155C23.4389 25.7172 27.4738 21.6857 27.4772 16.7106C27.4806 11.7356 23.4473 7.70065 18.4723 7.69727V7.69896Z" fill="white"/>
<path d="M25.5054 23.3555C26.1881 24.111 26.8453 24.8919 27.4568 25.7151C28.0751 26.5926 28.751 27.4412 28.9864 28.5287C29.0457 28.8709 28.9356 29.2842 28.6019 29.4655C27.7854 29.8839 26.5421 29.0792 25.8408 28.7117C23.178 27.1295 20.82 25.1206 18.5112 23.0895C13.9647 18.9767 9.68928 14.5488 6.03041 9.6144C5.19192 8.41341 2.49012 4.80705 3.08468 3.44853C3.38112 2.81839 4.18065 2.96406 4.67019 3.21138C6.08801 3.90927 7.23818 4.96289 8.37819 6.01143L8.32568 6.07919C7.47025 5.53882 6.61651 4.98999 5.72551 4.52078C5.18345 4.24128 4.65495 3.95501 4.08071 3.84829C3.98416 3.83305 3.8893 3.83305 3.85542 3.84829C3.83848 3.85507 3.84356 3.86184 3.8605 3.85337C3.88252 3.8466 3.90285 3.82458 3.90793 3.81611C3.91809 3.80425 3.90793 3.86692 3.92995 3.94823C4.18573 4.82738 4.79555 5.62013 5.31727 6.3807C5.89829 7.18532 6.51996 7.97129 7.15687 8.74542C11.6779 14.1423 16.5886 19.2443 21.7822 23.9992C22.8985 25.0088 24.0334 25.9946 25.2208 26.9178C26.0712 27.5598 26.9537 28.2746 27.943 28.6354C28.0345 28.6642 28.1225 28.6778 28.1649 28.6795C28.1852 28.6795 28.1903 28.6795 28.175 28.6896C28.1632 28.6981 28.1412 28.7269 28.1395 28.7371C28.2022 28.5694 28.0887 28.2408 28.009 27.9951C27.755 27.304 27.3891 26.6552 27.0232 26.0065C26.5184 25.1358 25.9679 24.2838 25.4106 23.4334L25.5071 23.3589L25.5054 23.3555Z" fill="white"/>
</g>
<defs>
<clipPath id="clip0_15_3142">
<rect width="26" height="26.5844" fill="white" transform="translate(3 3)"/>
</clipPath>
</defs>
</svg>
