<svg width="61" height="61" viewBox="0 0 61 61" fill="none" xmlns="http://www.w3.org/2000/svg">
<circle cx="30.3029" cy="30.3027" r="30.303" fill="black"/>
<g clip-path="url(#clip0_15_4092)">
<path d="M30.7587 18.8366C29.1919 16.9063 26.762 15.7054 24.0554 15.8274C19.9533 16.0127 16.5876 19.2986 16.3108 23.3961C16.0739 26.8837 18.0394 29.9422 20.9524 31.3236C20.9501 31.2228 20.9454 31.1219 20.9454 31.0187C20.9477 25.0449 25.1507 20.0562 30.7587 18.8389V18.8366Z" fill="white"/>
<path d="M33.423 18.551C32.5083 18.551 31.617 18.6518 30.7586 18.8371C32.0228 20.3968 32.724 22.4327 32.5481 24.6327C32.2315 28.5777 29.0394 31.7651 25.092 32.0771C23.6027 32.1943 22.1931 31.9105 20.9523 31.3218C20.9523 31.3617 20.9523 31.4016 20.9547 31.4415H20.9429L20.9359 48.7625L30.5874 48.7672V43.171C31.4974 43.382 32.4402 43.497 33.4113 43.497C40.2998 43.4993 45.8866 37.9172 45.8913 31.0287C45.896 24.1401 40.3115 18.5533 33.423 18.5486V18.551Z" fill="white"/>
<path d="M43.1614 40.2293C44.1066 41.2754 45.0166 42.3566 45.8633 43.4965C46.7194 44.7114 47.6552 45.8865 47.9812 47.3922C48.0633 47.866 47.9109 48.4383 47.4488 48.6893C46.3183 49.2686 44.5968 48.1545 43.6258 47.6455C39.9387 45.4549 36.6739 42.6732 33.4771 39.8611C27.1819 34.1664 21.2621 28.0354 16.196 21.2032C15.035 19.5403 11.294 14.5468 12.1173 12.6658C12.5277 11.7933 13.6347 11.995 14.3126 12.3375C16.2757 13.3038 17.8682 14.7626 19.4467 16.2144L19.374 16.3083C18.1896 15.5601 17.0075 14.8002 15.7738 14.1505C15.0232 13.7635 14.2915 13.3671 13.4964 13.2193C13.3627 13.1982 13.2313 13.1982 13.1844 13.2193C13.161 13.2287 13.168 13.2381 13.1915 13.2264C13.222 13.217 13.2501 13.1865 13.2571 13.1748C13.2712 13.1584 13.2571 13.2451 13.2876 13.3577C13.6418 14.575 14.4861 15.6727 15.2085 16.7258C16.013 17.8398 16.8738 18.9281 17.7557 20C24.0156 27.4725 30.815 34.5369 38.0061 41.1206C39.5517 42.5184 41.1232 43.8835 42.7673 45.1617C43.9447 46.0507 45.1667 47.0404 46.5364 47.54C46.6631 47.5799 46.7851 47.5986 46.8437 47.601C46.8718 47.601 46.8789 47.601 46.8578 47.6151C46.8413 47.6268 46.8109 47.6667 46.8085 47.6807C46.8953 47.4485 46.7381 46.9935 46.6279 46.6534C46.2761 45.6965 45.7695 44.7982 45.2629 43.8999C44.5639 42.6943 43.8017 41.5146 43.03 40.3372L43.1637 40.234L43.1614 40.2293Z" fill="white"/>
</g>
<defs>
<clipPath id="clip0_15_4092">
<rect width="36" height="36.8092" fill="white" transform="translate(12 12.045)"/>
</clipPath>
</defs>
</svg>
