<svg width="62" height="61" viewBox="0 0 62 61" fill="none" xmlns="http://www.w3.org/2000/svg">
<circle cx="31.2726" cy="30.3027" r="30.303" fill="url(#paint0_linear_15_4225)"/>
<g clip-path="url(#clip0_15_4225)">
<path d="M31.7284 18.8365C30.1616 16.9062 27.7318 15.7053 25.0251 15.8273C20.923 16.0126 17.5573 19.2985 17.2805 23.396C17.0437 26.8837 19.0091 29.9421 21.9221 31.3236C21.9198 31.2227 21.9151 31.1219 21.9151 31.0187C21.9175 25.0449 26.1205 20.0561 31.7284 18.8388V18.8365Z" fill="white"/>
<path d="M34.3927 18.5509C33.478 18.5509 32.5867 18.6518 31.7283 18.8371C32.9925 20.3968 33.6938 22.4326 33.5179 24.6326C33.2012 28.5776 30.0091 31.7651 26.0617 32.077C24.5724 32.1943 23.1628 31.9105 21.9221 31.3218C21.9221 31.3617 21.9221 31.4015 21.9244 31.4414H21.9127L21.9056 48.7624L31.5571 48.7671V43.1709C32.4671 43.382 33.41 43.4969 34.381 43.4969C41.2695 43.4993 46.8563 37.9171 46.861 31.0286C46.8657 24.1401 41.2812 18.5533 34.3927 18.5486V18.5509Z" fill="white"/>
<path d="M44.1311 40.2292C45.0763 41.2753 45.9863 42.3565 46.833 43.4964C47.6891 44.7114 48.6249 45.8864 48.951 47.3922C49.033 47.866 48.8806 48.4382 48.4185 48.6892C47.288 49.2685 45.5665 48.1544 44.5955 47.6455C40.9085 45.4549 37.6436 42.6732 34.4468 39.861C28.1517 34.1663 22.2318 28.0353 17.1657 21.2031C16.0047 19.5402 12.2637 14.5468 13.087 12.6658C13.4974 11.7933 14.6045 11.995 15.2823 12.3374C17.2454 13.3037 18.838 14.7626 20.4165 16.2144L20.3437 16.3082C19.1593 15.56 17.9772 14.8001 16.7435 14.1504C15.993 13.7634 15.2612 13.367 14.4661 13.2193C14.3324 13.1982 14.2011 13.1982 14.1542 13.2193C14.1307 13.2287 14.1377 13.238 14.1612 13.2263C14.1917 13.2169 14.2198 13.1864 14.2269 13.1747C14.2409 13.1583 14.2269 13.2451 14.2574 13.3577C14.6115 14.5749 15.4559 15.6726 16.1783 16.7257C16.9827 17.8398 17.8435 18.928 18.7254 19.9999C24.9853 27.4724 31.7847 34.5369 38.9758 41.1205C40.5215 42.5184 42.0929 43.8834 43.7371 45.1617C44.9145 46.0506 46.1364 47.0404 47.5062 47.5399C47.6328 47.5798 47.7548 47.5986 47.8134 47.6009C47.8416 47.6009 47.8486 47.6009 47.8275 47.615C47.8111 47.6267 47.7806 47.6666 47.7782 47.6807C47.865 47.4485 47.7079 46.9935 47.5976 46.6534C47.2458 45.6964 46.7392 44.7981 46.2326 43.8998C45.5337 42.6943 44.7714 41.5145 43.9997 40.3371L44.1334 40.2339L44.1311 40.2292Z" fill="white"/>
</g>
<defs>
<linearGradient id="paint0_linear_15_4225" x1="18.7191" y1="-140.95" x2="120.066" y2="-123.528" gradientUnits="userSpaceOnUse">
<stop stop-color="#2F44AF"/>
<stop offset="0.984747" stop-color="#581A38"/>
</linearGradient>
<clipPath id="clip0_15_4225">
<rect width="36" height="36.8092" fill="white" transform="translate(12.9697 12.0449)"/>
</clipPath>
</defs>
</svg>
