<svg xmlns="http://www.w3.org/2000/svg" width="23" height="22" viewBox="0 0 23 22" fill="none">
  <path d="M17.83 12.228C18.9629 13.0744 19.9754 15.2055 19.9754 16.5186C19.9754 16.9277 19.6769 17.2593 19.3087 17.2593H18.9027M14.612 8.75853C15.3448 8.33459 15.8379 7.54223 15.8379 6.6347C15.8379 5.72717 15.3448 4.93481 14.612 4.51087M3.47914 17.2593H15.2223C15.5905 17.2593 15.889 16.9277 15.889 16.5186C15.889 13.9472 13.7407 11.8627 9.35074 11.8627C4.96078 11.8627 2.8125 13.9472 2.8125 16.5186C2.8125 16.9277 3.11097 17.2593 3.47914 17.2593ZM11.8026 6.6347C11.8026 7.98882 10.7049 9.08654 9.35074 9.08654C7.99663 9.08654 6.8989 7.98882 6.8989 6.6347C6.8989 5.28059 7.99663 4.18286 9.35074 4.18286C10.7049 4.18286 11.8026 5.28059 11.8026 6.6347Z" stroke="#E2E3E2" stroke-width="1.7878" stroke-linecap="round"/>
</svg>